<svg width="149" height="149" viewBox="0 0 149 149" fill="none" xmlns="http://www.w3.org/2000/svg">
<path fill-rule="evenodd" clip-rule="evenodd" d="M45.8365 0C47.3561 0 48.8134 0.603648 49.888 1.67815C50.9625 2.75265 51.5661 4.20999 51.5661 5.72957V11.4591H68.7548V5.72957C68.7548 4.20999 69.3585 2.75265 70.433 1.67815C71.5075 0.603648 72.9648 0 74.4844 0C76.0039 0 77.4613 0.603648 78.5358 1.67815C79.6103 2.75265 80.2139 4.20999 80.2139 5.72957V11.4591H97.4026V5.72957C97.4026 4.20999 98.0063 2.75265 99.0808 1.67815C100.155 0.603648 101.613 0 103.132 0C104.652 0 106.109 0.603648 107.184 1.67815C108.258 2.75265 108.862 4.20999 108.862 5.72957V11.4591H114.591C120.67 11.4591 126.499 13.8737 130.797 18.1717C135.095 22.4697 137.51 28.2991 137.51 34.3774V40.107H143.239C144.759 40.107 146.216 40.7106 147.291 41.7851C148.365 42.8596 148.969 44.317 148.969 45.8365C148.969 47.3561 148.365 48.8134 147.291 49.888C146.216 50.9625 144.759 51.5661 143.239 51.5661H137.51V68.7548H143.239C144.759 68.7548 146.216 69.3585 147.291 70.433C148.365 71.5075 148.969 72.9648 148.969 74.4844C148.969 76.0039 148.365 77.4613 147.291 78.5358C146.216 79.6103 144.759 80.2139 143.239 80.2139H137.51V97.4026H143.239C144.759 97.4026 146.216 98.0063 147.291 99.0808C148.365 100.155 148.969 101.613 148.969 103.132C148.969 104.652 148.365 106.109 147.291 107.184C146.216 108.258 144.759 108.862 143.239 108.862H137.51V114.591C137.51 120.67 135.095 126.499 130.797 130.797C126.499 135.095 120.67 137.51 114.591 137.51H108.862V143.239C108.862 144.759 108.258 146.216 107.184 147.291C106.109 148.365 104.652 148.969 103.132 148.969C101.613 148.969 100.155 148.365 99.0808 147.291C98.0063 146.216 97.4026 144.759 97.4026 143.239V137.51H80.2139V143.239C80.2139 144.759 79.6103 146.216 78.5358 147.291C77.4613 148.365 76.0039 148.969 74.4844 148.969C72.9648 148.969 71.5075 148.365 70.433 147.291C69.3585 146.216 68.7548 144.759 68.7548 143.239V137.51H51.5661V143.239C51.5661 144.759 50.9625 146.216 49.888 147.291C48.8134 148.365 47.3561 148.969 45.8365 148.969C44.317 148.969 42.8596 148.365 41.7851 147.291C40.7106 146.216 40.107 144.759 40.107 143.239V137.51H34.3774C28.2991 137.51 22.4697 135.095 18.1717 130.797C13.8737 126.499 11.4591 120.67 11.4591 114.591V108.862H5.72957C4.20999 108.862 2.75265 108.258 1.67815 107.184C0.603648 106.109 0 104.652 0 103.132C0 101.613 0.603648 100.155 1.67815 99.0808C2.75265 98.0063 4.20999 97.4026 5.72957 97.4026H11.4591V80.2139H5.72957C4.20999 80.2139 2.75265 79.6103 1.67815 78.5358C0.603648 77.4613 0 76.0039 0 74.4844C0 72.9648 0.603648 71.5075 1.67815 70.433C2.75265 69.3585 4.20999 68.7548 5.72957 68.7548H11.4591V51.5661H5.72957C4.20999 51.5661 2.75265 50.9625 1.67815 49.888C0.603648 48.8134 0 47.3561 0 45.8365C0 44.317 0.603648 42.8596 1.67815 41.7851C2.75265 40.7106 4.20999 40.107 5.72957 40.107H11.4591V34.3774C11.4591 28.2991 13.8737 22.4697 18.1717 18.1717C22.4697 13.8737 28.2991 11.4591 34.3774 11.4591H40.107V5.72957C40.107 4.20999 40.7106 2.75265 41.7851 1.67815C42.8596 0.603648 44.317 0 45.8365 0ZM28.6478 34.3774C28.6478 32.8578 29.2515 31.4005 30.326 30.326C31.4005 29.2515 32.8578 28.6478 34.3774 28.6478H114.591C116.111 28.6478 117.568 29.2515 118.643 30.326C119.717 31.4005 120.321 32.8578 120.321 34.3774V114.591C120.321 116.111 119.717 117.568 118.643 118.643C117.568 119.717 116.111 120.321 114.591 120.321H34.3774C32.8578 120.321 31.4005 119.717 30.326 118.643C29.2515 117.568 28.6478 116.111 28.6478 114.591V34.3774Z" fill="url(#paint0_linear_1_75)"/>
<path fill-rule="evenodd" clip-rule="evenodd" d="M82.7446 39.3196C83.233 39.5943 83.6163 40.0262 83.8333 40.5465C84.0504 41.0669 84.0887 41.6457 83.9421 42.1906L77.2973 66.7992H101.542C102.029 66.7992 102.506 66.9432 102.914 67.2133C103.321 67.4835 103.642 67.8681 103.836 68.3198C104.03 68.7716 104.09 69.2708 104.007 69.7562C103.924 70.2415 103.702 70.6918 103.369 71.0517L68.3441 108.96C67.9626 109.374 67.4548 109.647 66.9018 109.735C66.3489 109.822 65.7827 109.72 65.294 109.445C64.8052 109.169 64.422 108.736 64.2058 108.214C63.9895 107.693 63.9526 107.113 64.1011 106.568L70.7459 81.9626H46.5016C46.0141 81.9626 45.5372 81.8187 45.1295 81.5485C44.7218 81.2784 44.4012 80.8938 44.207 80.442C44.0128 79.9902 43.9535 79.491 44.0364 79.0057C44.1193 78.5203 44.3408 78.07 44.6736 77.7101L79.699 39.8015C80.0805 39.3892 80.5876 39.1178 81.1396 39.0304C81.6915 38.9431 82.2565 39.0449 82.7446 39.3196V39.3196Z" fill="url(#paint1_linear_1_75)"/>
<defs>
<linearGradient id="paint0_linear_1_75" x1="149.22" y1="-0.250787" x2="-0.250779" y2="149.22" gradientUnits="userSpaceOnUse">
<stop stop-color="#788CFF"/>
<stop offset="1" stop-color="#6478FF"/>
</linearGradient>
<linearGradient id="paint1_linear_1_75" x1="104.144" y1="38.8809" x2="34.0885" y2="98.3221" gradientUnits="userSpaceOnUse">
<stop stop-color="#788CFF"/>
<stop offset="1" stop-color="#6478FF"/>
</linearGradient>
</defs>
</svg>
