<svg width="200" height="200" viewBox="0 0 200 200" fill="none" xmlns="http://www.w3.org/2000/svg">
<path fill-rule="evenodd" clip-rule="evenodd" d="M71.8365 26C73.3561 26 74.8134 26.6036 75.888 27.6782C76.9625 28.7527 77.5661 30.21 77.5661 31.7296V37.4591H94.7548V31.7296C94.7548 30.21 95.3585 28.7527 96.433 27.6782C97.5075 26.6036 98.9648 26 100.484 26C102.004 26 103.461 26.6036 104.536 27.6782C105.61 28.7527 106.214 30.21 106.214 31.7296V37.4591H123.403V31.7296C123.403 30.21 124.006 28.7527 125.081 27.6782C126.155 26.6036 127.613 26 129.132 26C130.652 26 132.109 26.6036 133.184 27.6782C134.258 28.7527 134.862 30.21 134.862 31.7296V37.4591H140.591C146.67 37.4591 152.499 39.8737 156.797 44.1717C161.095 48.4697 163.51 54.2991 163.51 60.3774V66.107H169.239C170.759 66.107 172.216 66.7106 173.291 67.7851C174.365 68.8596 174.969 70.317 174.969 71.8365C174.969 73.3561 174.365 74.8134 173.291 75.888C172.216 76.9625 170.759 77.5661 169.239 77.5661H163.51V94.7548H169.239C170.759 94.7548 172.216 95.3585 173.291 96.433C174.365 97.5075 174.969 98.9648 174.969 100.484C174.969 102.004 174.365 103.461 173.291 104.536C172.216 105.61 170.759 106.214 169.239 106.214H163.51V123.403H169.239C170.759 123.403 172.216 124.006 173.291 125.081C174.365 126.155 174.969 127.613 174.969 129.132C174.969 130.652 174.365 132.109 173.291 133.184C172.216 134.258 170.759 134.862 169.239 134.862H163.51V140.591C163.51 146.67 161.095 152.499 156.797 156.797C152.499 161.095 146.67 163.51 140.591 163.51H134.862V169.239C134.862 170.759 134.258 172.216 133.184 173.291C132.109 174.365 130.652 174.969 129.132 174.969C127.613 174.969 126.155 174.365 125.081 173.291C124.006 172.216 123.403 170.759 123.403 169.239V163.51H106.214V169.239C106.214 170.759 105.61 172.216 104.536 173.291C103.461 174.365 102.004 174.969 100.484 174.969C98.9648 174.969 97.5075 174.365 96.433 173.291C95.3585 172.216 94.7548 170.759 94.7548 169.239V163.51H77.5661V169.239C77.5661 170.759 76.9625 172.216 75.888 173.291C74.8134 174.365 73.3561 174.969 71.8365 174.969C70.317 174.969 68.8596 174.365 67.7851 173.291C66.7106 172.216 66.107 170.759 66.107 169.239V163.51H60.3774C54.2991 163.51 48.4697 161.095 44.1717 156.797C39.8737 152.499 37.4591 146.67 37.4591 140.591V134.862H31.7296C30.21 134.862 28.7527 134.258 27.6782 133.184C26.6036 132.109 26 130.652 26 129.132C26 127.613 26.6036 126.155 27.6782 125.081C28.7527 124.006 30.21 123.403 31.7296 123.403H37.4591V106.214H31.7296C30.21 106.214 28.7527 105.61 27.6782 104.536C26.6036 103.461 26 102.004 26 100.484C26 98.9648 26.6036 97.5075 27.6782 96.433C28.7527 95.3585 30.21 94.7548 31.7296 94.7548H37.4591V77.5661H31.7296C30.21 77.5661 28.7527 76.9625 27.6782 75.888C26.6036 74.8134 26 73.3561 26 71.8365C26 70.317 26.6036 68.8596 27.6782 67.7851C28.7527 66.7106 30.21 66.107 31.7296 66.107H37.4591V60.3774C37.4591 54.2991 39.8737 48.4697 44.1717 44.1717C48.4697 39.8737 54.2991 37.4591 60.3774 37.4591H66.107V31.7296C66.107 30.21 66.7106 28.7527 67.7851 27.6782C68.8596 26.6036 70.317 26 71.8365 26ZM54.6478 60.3774C54.6478 58.8578 55.2515 57.4005 56.326 56.326C57.4005 55.2515 58.8578 54.6478 60.3774 54.6478H140.591C142.111 54.6478 143.568 55.2515 144.643 56.326C145.717 57.4005 146.321 58.8578 146.321 60.3774V140.591C146.321 142.111 145.717 143.568 144.643 144.643C143.568 145.717 142.111 146.321 140.591 146.321H60.3774C58.8578 146.321 57.4005 145.717 56.326 144.643C55.2515 143.568 54.6478 142.111 54.6478 140.591V60.3774Z" fill="url(#paint0_linear_1_57)"/>
<path fill-rule="evenodd" clip-rule="evenodd" d="M108.745 65.3196C109.233 65.5943 109.616 66.0262 109.833 66.5465C110.05 67.0669 110.089 67.6457 109.942 68.1906L103.297 92.7992H127.542C128.029 92.7992 128.506 92.9432 128.914 93.2133C129.321 93.4835 129.642 93.8681 129.836 94.3198C130.03 94.7716 130.09 95.2708 130.007 95.7562C129.924 96.2415 129.702 96.6918 129.37 97.0517L94.3441 134.96C93.9627 135.374 93.4548 135.647 92.9019 135.735C92.3489 135.822 91.7828 135.72 91.294 135.445C90.8052 135.169 90.4221 134.736 90.2058 134.214C89.9895 133.693 89.9527 133.113 90.1011 132.568L96.7459 107.963H72.5017C72.0141 107.963 71.5372 107.819 71.1295 107.549C70.7218 107.278 70.4012 106.894 70.207 106.442C70.0128 105.99 69.9535 105.491 70.0364 105.006C70.1193 104.52 70.3408 104.07 70.6737 103.71L105.699 65.8015C106.081 65.3892 106.588 65.1178 107.14 65.0304C107.692 64.9431 108.257 65.0449 108.745 65.3196V65.3196Z" fill="url(#paint1_linear_1_57)"/>
<defs>
<linearGradient id="paint0_linear_1_57" x1="175.22" y1="25.7492" x2="25.7492" y2="175.22" gradientUnits="userSpaceOnUse">
<stop stop-color="#788CFF"/>
<stop offset="1" stop-color="#6478FF"/>
</linearGradient>
<linearGradient id="paint1_linear_1_57" x1="130.144" y1="64.8809" x2="60.0885" y2="124.322" gradientUnits="userSpaceOnUse">
<stop stop-color="#788CFF"/>
<stop offset="1" stop-color="#6478FF"/>
</linearGradient>
</defs>
</svg>
