<svg width="348" height="180" viewBox="0 0 348 180" fill="none" xmlns="http://www.w3.org/2000/svg">
<path d="M69.5751 119.912C69.4857 120.266 69.1312 120.444 68.5131 120.444H56.6918C55.9814 120.444 55.3513 120.134 54.833 119.513L35.313 94.6815L29.8693 99.8601V119.118C29.8693 120.004 29.4254 120.447 28.5407 120.447H19.378C18.4918 120.447 18.0494 120.004 18.0494 119.118V31.3405C18.0494 30.4572 18.4918 30 19.378 30H28.5422C29.4269 30 29.8708 30.4438 29.8708 31.3405V85.3876L53.2424 61.7509C53.862 61.1328 54.4815 60.8216 55.1011 60.8216H67.3201C67.8504 60.8216 68.2033 61.045 68.3821 61.4843C68.5608 62.016 68.531 62.4137 68.2331 62.6803L43.5464 86.5792L69.3085 118.583C69.6615 118.938 69.7508 119.38 69.5766 119.912M117.452 120.442H108.289C107.315 120.442 106.829 120.001 106.829 119.102V117.24C102.933 120.159 97.9317 121.622 91.8237 121.622C86.2474 121.622 81.4202 119.894 77.3468 116.445C73.3626 112.904 71.3713 108.402 71.3713 102.9C71.3713 94.2242 76.7704 88.3367 87.5714 85.2387C91.8207 83.998 98.2385 82.9376 106.826 82.0514C107.094 78.7777 106.231 75.9896 104.238 73.6855C102.245 71.3814 99.3451 70.233 95.5397 70.233C90.58 70.233 85.5354 72.0203 80.4015 75.5442C79.6047 75.9881 79.0283 75.8987 78.6738 75.2791L73.9077 68.5068C73.4639 67.9751 73.5979 67.357 74.3054 66.6481C81.1224 61.9565 88.2044 59.6092 95.5531 59.6092C101.219 59.6092 106.044 60.9377 110.03 63.5933C115.873 67.4896 118.794 73.7301 118.794 82.315V119.099C118.794 119.985 118.35 120.439 117.453 120.439M106.828 92.7036C98.1506 93.5897 92.2213 94.741 89.034 96.156C84.6954 98.0147 82.7458 100.669 83.1896 104.124C83.4548 106.072 84.4303 107.644 86.1118 108.838C87.7934 110.033 89.7415 110.721 91.9547 110.897C98.1506 111.339 103.125 109.701 106.828 105.982V92.7036ZM173.051 143.482C168.225 148.481 161.386 150.985 152.534 150.985C147.399 150.985 142.53 149.701 137.928 147.135C136.952 146.514 135.803 145.695 134.475 144.678C133.148 143.66 131.596 142.399 129.829 140.894C129.208 140.364 129.164 139.7 129.68 138.902L135.935 132.646C136.2 132.378 136.555 132.247 136.997 132.247C137.35 132.247 137.661 132.396 137.926 132.646C142.883 137.603 147.709 140.083 152.4 140.083C163.124 140.083 168.468 134.505 168.468 123.351V116.446C164.307 119.898 158.775 121.625 151.869 121.625C143.281 121.625 136.552 118.396 131.684 111.932C127.435 106.267 125.31 99.1228 125.31 90.5529C125.31 82.4089 127.346 75.504 131.419 69.8503C136.185 63.0348 142.972 59.6256 151.738 59.6256C158.377 59.6256 163.955 61.3533 168.468 64.8057V62.1501C168.468 61.2654 168.91 60.8216 169.797 60.8216H178.961C179.844 60.8216 180.301 61.2654 180.301 62.1501V121.508C180.301 131.154 177.888 138.48 173.063 143.482M168.48 79.6758C166.267 74.0116 161.131 71.1773 153.077 71.1773C142.719 71.1773 137.542 77.6413 137.542 90.5648C137.542 97.7347 139.27 102.961 142.721 106.233C145.287 108.802 148.607 110.085 152.68 110.085C161 110.085 166.268 107.252 168.468 101.586L168.48 79.6758ZM235.512 143.496C230.686 148.496 223.847 151 214.995 151C209.857 151 204.989 149.716 200.387 147.15C199.412 146.529 198.262 145.71 196.935 144.692C195.608 143.675 194.057 142.414 192.288 140.909C191.668 140.379 191.624 139.715 192.139 138.917L198.394 132.661C198.66 132.393 199.014 132.262 199.456 132.262C199.809 132.262 200.121 132.411 200.386 132.661C205.342 137.618 210.167 140.098 214.86 140.098C225.583 140.098 230.945 134.52 230.945 123.366V116.461C226.782 119.913 221.264 121.64 214.346 121.64C205.758 121.64 199.029 118.411 194.162 111.947C189.911 106.282 187.787 99.1377 187.787 90.5678C187.787 82.4237 189.823 75.5189 193.893 69.8652C198.66 63.0497 205.447 59.6405 214.212 59.6405C220.851 59.6405 226.428 61.3682 230.944 64.8206V62.165C230.944 61.2803 231.385 60.8365 232.272 60.8365H241.435C242.318 60.8365 242.775 61.2803 242.775 62.165V121.523C242.775 131.169 240.363 138.495 235.54 143.496M230.959 79.6907C228.744 74.0265 223.608 71.1922 215.554 71.1922C205.195 71.1922 200.016 77.6562 200.016 90.5797C200.016 97.7496 201.744 102.976 205.195 106.248C207.763 108.817 211.083 110.1 215.155 110.1C223.474 110.1 228.744 107.267 230.942 101.601V79.7071L230.959 79.6907ZM263.092 120.441H253.928C253.043 120.441 252.588 120 252.588 119.1V31.3405C252.588 30.4572 253.03 30 253.928 30H263.092C263.975 30 264.433 30.4424 264.433 31.3405V119.118C264.433 120.003 263.989 120.458 263.092 120.458M329.881 93.5004C329.881 94.3866 329.434 94.8289 328.553 94.8289H285.394C285.925 99.1675 287.785 102.797 290.972 105.702C294.602 108.802 299.161 110.348 304.651 110.348C309.518 110.348 313.885 108.978 317.796 106.232C318.595 105.7 319.256 105.7 319.789 106.232L326.045 112.606C326.753 113.317 326.753 113.947 326.045 114.465C319.67 119.231 312.277 121.635 303.853 121.635C294.822 121.635 287.296 118.626 281.276 112.606C275.435 106.676 272.513 99.1065 272.513 89.899C272.513 81.2233 275.387 73.8761 281.144 67.856C286.456 62.3675 293.361 59.6241 301.846 59.6241C309.901 59.6241 316.673 62.5016 322.165 68.2551C327.829 74.1874 330.441 81.6239 329.999 90.5663L329.881 93.5004ZM312.485 73.9804C309.476 71.2369 305.845 69.8637 301.612 69.8637C297.628 69.8637 294.13 71.1922 291.123 73.8463C288.116 76.5004 286.208 79.9558 285.412 84.2051H317.415C317.326 80.1346 315.687 76.7238 312.5 73.9804" fill="#20BEFF"/>
</svg>
