<svg width="180" height="180" viewBox="0 0 180 180" fill="none" xmlns="http://www.w3.org/2000/svg">
<path d="M107.072 91.1854C126.36 91.1854 141.997 75.5487 141.997 56.2599C141.997 36.9712 126.36 21.3345 107.072 21.3345C87.7828 21.3345 72.1461 36.9712 72.1461 56.2599C72.1461 75.5487 87.7828 91.1854 107.072 91.1854Z" stroke="#F5A252" stroke-width="17.694" stroke-miterlimit="10"/>
<path d="M107.071 159.122C126.362 159.122 142 143.484 142 124.193C142 104.902 126.362 89.2637 107.071 89.2637C87.7801 89.2637 72.1418 104.902 72.1418 124.193C72.1418 143.484 87.7801 159.122 107.071 159.122Z" stroke="#579ACA" stroke-width="17.694" stroke-miterlimit="10"/>
<path d="M72.9291 125.412C92.2199 125.412 107.858 109.773 107.858 90.4827C107.858 71.1919 92.2199 55.5536 72.9291 55.5536C53.6383 55.5536 38 71.1919 38 90.4827C38 109.773 53.6383 125.412 72.9291 125.412Z" stroke="#E66581" stroke-width="17.694" stroke-miterlimit="10"/>
<path d="M78.95 103.465C81.728 99.6915 85.3187 96.4119 89.6413 93.923C106.354 84.2967 127.711 90.0432 137.337 106.759" stroke="#579ACA" stroke-width="17.694" stroke-miterlimit="10"/>
<path d="M76.8049 73.6897C67.1786 56.9774 72.9215 35.6202 89.6412 25.9903C106.357 16.364 127.711 22.1141 137.337 38.8302" stroke="#F5A252" stroke-width="17.694" stroke-miterlimit="10"/>
</svg>
