<svg width="180" height="180" viewBox="0 0 180 180" fill="none" xmlns="http://www.w3.org/2000/svg">
<path d="M107.072 90.8602C126.36 90.8602 141.997 75.2236 141.997 55.9348C141.997 36.646 126.36 21.0094 107.072 21.0094C87.7828 21.0094 72.1461 36.646 72.1461 55.9348C72.1461 75.2236 87.7828 90.8602 107.072 90.8602Z" stroke="#F5A252" stroke-width="17.694" stroke-miterlimit="10"/>
<path d="M107.071 158.797C126.362 158.797 142 143.158 142 123.868C142 104.577 126.362 88.9386 107.071 88.9386C87.7801 88.9386 72.1418 104.577 72.1418 123.868C72.1418 143.158 87.7801 158.797 107.071 158.797Z" stroke="#579ACA" stroke-width="17.694" stroke-miterlimit="10"/>
<path d="M72.9291 125.087C92.2199 125.087 107.858 109.448 107.858 90.1575C107.858 70.8667 92.2199 55.2284 72.9291 55.2284C53.6383 55.2284 38 70.8667 38 90.1575C38 109.448 53.6383 125.087 72.9291 125.087Z" stroke="#E66581" stroke-width="17.694" stroke-miterlimit="10"/>
<path d="M78.95 103.14C81.728 99.3663 85.3187 96.0868 89.6413 93.5979C106.354 83.9716 127.711 89.7181 137.337 106.434" stroke="#579ACA" stroke-width="17.694" stroke-miterlimit="10"/>
<path d="M76.8049 73.3646C67.1786 56.6522 72.9215 35.2951 89.6412 25.6651C106.357 16.0389 127.711 21.789 137.337 38.505" stroke="#F5A252" stroke-width="17.694" stroke-miterlimit="10"/>
</svg>
