<svg width="180" height="180" viewBox="0 0 180 180" fill="none" xmlns="http://www.w3.org/2000/svg">
<path d="M107.072 102.86C126.36 102.86 141.997 87.2236 141.997 67.9348C141.997 48.646 126.36 33.0094 107.072 33.0094C87.7828 33.0094 72.1461 48.646 72.1461 67.9348C72.1461 87.2236 87.7828 102.86 107.072 102.86Z" stroke="#F5A252" stroke-width="17.694" stroke-miterlimit="10"/>
<path d="M107.071 170.797C126.362 170.797 142 155.158 142 135.868C142 116.577 126.362 100.939 107.071 100.939C87.7801 100.939 72.1418 116.577 72.1418 135.868C72.1418 155.158 87.7801 170.797 107.071 170.797Z" stroke="#579ACA" stroke-width="17.694" stroke-miterlimit="10"/>
<path d="M72.9291 137.087C92.2199 137.087 107.858 121.448 107.858 102.158C107.858 82.8667 92.2199 67.2284 72.9291 67.2284C53.6383 67.2284 38 82.8667 38 102.158C38 121.448 53.6383 137.087 72.9291 137.087Z" stroke="#E66581" stroke-width="17.694" stroke-miterlimit="10"/>
<path d="M78.95 115.14C81.728 111.366 85.3187 108.087 89.6413 105.598C106.354 95.9716 127.711 101.718 137.337 118.434" stroke="#579ACA" stroke-width="17.694" stroke-miterlimit="10"/>
<path d="M76.8049 85.3646C67.1786 68.6522 72.9215 47.2951 89.6412 37.6651C106.357 28.0389 127.711 33.789 137.337 50.505" stroke="#F5A252" stroke-width="17.694" stroke-miterlimit="10"/>
</svg>
