<svg width="180" height="180" viewBox="0 0 180 180" fill="none" xmlns="http://www.w3.org/2000/svg">
<path d="M33.2624 70.5303L15.3937 52.5234C5.53616 62.4363 0 75.8684 0 89.8725C0 103.876 5.53616 117.309 15.3937 127.222L33.3385 109.215C28.2254 104.09 25.3462 97.1399 25.3319 89.8882C25.3177 82.6366 28.1696 75.6752 33.2624 70.5303V70.5303Z" fill="#E8710A"/>
<path d="M15.3937 52.5234L33.2624 70.5303C35.7976 67.9833 38.8082 65.9628 42.1222 64.5842C45.4361 63.2056 48.9883 62.496 52.5758 62.496C56.1632 62.496 59.7154 63.2056 63.0294 64.5842C66.3433 65.9628 69.3539 67.9833 71.8891 70.5303L84.8915 48.1742L84.1311 47.5638C73.9892 39.9712 61.4633 36.2941 48.8424 37.2047C36.2216 38.1154 24.3487 43.5528 15.3937 52.5234V52.5234Z" fill="#F9AB00"/>
<path d="M84.9675 131.571L71.8892 109.291C69.354 111.838 66.3433 113.858 63.0294 115.237C59.7154 116.616 56.1632 117.325 52.5758 117.325C48.9883 117.325 45.4361 116.616 42.1222 115.237C38.8082 113.858 35.7976 111.838 33.2624 109.291L15.3937 127.298C24.3309 136.188 36.1438 141.576 48.6957 142.485C61.2476 143.395 73.7094 139.767 83.827 132.257L84.6634 131.571" fill="#F9AB00"/>
<path d="M89.986 52.5234C80.1284 62.4363 74.5923 75.8684 74.5923 89.8724C74.5923 103.876 80.1284 117.309 89.986 127.222L107.931 109.215C102.809 104.075 99.9309 97.1033 99.9309 89.8343C99.9309 82.5653 102.809 75.594 107.931 70.454C113.053 65.314 120 62.4264 127.244 62.4264C134.488 62.4264 141.435 65.314 146.558 70.454L164.578 52.5234C159.684 47.6025 153.87 43.6985 147.471 41.0348C141.071 38.3711 134.211 37 127.282 37C120.354 37 113.493 38.3711 107.094 41.0348C100.694 43.6985 94.8804 47.6025 89.986 52.5234V52.5234Z" fill="#F9AB00"/>
<path d="M164.578 52.5234L146.71 70.5303C151.832 75.6703 154.71 82.6416 154.71 89.9106C154.71 97.1796 151.832 104.151 146.71 109.291C141.587 114.431 134.64 117.319 127.396 117.319C120.152 117.319 113.205 114.431 108.083 109.291L89.9861 127.298C99.8676 137.224 113.274 142.804 127.255 142.811C134.178 142.815 141.034 141.45 147.432 138.795C153.829 136.139 159.643 132.246 164.54 127.336C169.438 122.426 173.324 116.597 175.977 110.18C178.629 103.763 179.997 96.8846 180 89.9376C180.004 82.9906 178.643 76.1109 175.997 69.6914C173.351 63.2718 169.471 57.4381 164.578 52.5234V52.5234Z" fill="#E8710A"/>
</svg>
