<svg width="180" height="180" viewBox="0 0 180 180" fill="none" xmlns="http://www.w3.org/2000/svg">
<path d="M33.2624 85.5303L15.3937 67.5234C5.53616 77.4363 0 90.8684 0 104.872C0 118.876 5.53616 132.309 15.3937 142.222L33.3385 124.215C28.2254 119.09 25.3462 112.14 25.3319 104.888C25.3177 97.6366 28.1696 90.6752 33.2624 85.5303V85.5303Z" fill="#E8710A"/>
<path d="M15.3937 67.5234L33.2624 85.5303C35.7976 82.9833 38.8082 80.9628 42.1222 79.5842C45.4361 78.2056 48.9883 77.496 52.5758 77.496C56.1632 77.496 59.7154 78.2056 63.0294 79.5842C66.3433 80.9628 69.3539 82.9833 71.8891 85.5303L84.8915 63.1742L84.1311 62.5638C73.9892 54.9712 61.4633 51.2941 48.8424 52.2047C36.2216 53.1154 24.3487 58.5528 15.3937 67.5234V67.5234Z" fill="#F9AB00"/>
<path d="M84.9675 146.571L71.8892 124.291C69.354 126.838 66.3433 128.858 63.0294 130.237C59.7154 131.616 56.1632 132.325 52.5758 132.325C48.9883 132.325 45.4361 131.616 42.1222 130.237C38.8082 128.858 35.7976 126.838 33.2624 124.291L15.3937 142.298C24.3309 151.188 36.1438 156.576 48.6957 157.485C61.2476 158.395 73.7094 154.767 83.827 147.257L84.6634 146.571" fill="#F9AB00"/>
<path d="M89.986 67.5234C80.1284 77.4363 74.5923 90.8684 74.5923 104.872C74.5923 118.876 80.1284 132.309 89.986 142.222L107.931 124.215C102.809 119.075 99.9309 112.103 99.9309 104.834C99.9309 97.5653 102.809 90.594 107.931 85.454C113.053 80.314 120 77.4264 127.244 77.4264C134.488 77.4264 141.435 80.314 146.558 85.454L164.578 67.5234C159.684 62.6025 153.87 58.6985 147.471 56.0348C141.071 53.3711 134.211 52 127.282 52C120.354 52 113.493 53.3711 107.094 56.0348C100.694 58.6985 94.8804 62.6025 89.986 67.5234V67.5234Z" fill="#F9AB00"/>
<path d="M164.578 67.5234L146.71 85.5303C151.832 90.6703 154.71 97.6416 154.71 104.911C154.71 112.18 151.832 119.151 146.71 124.291C141.587 129.431 134.64 132.319 127.396 132.319C120.152 132.319 113.205 129.431 108.083 124.291L89.9861 142.298C99.8676 152.224 113.274 157.804 127.255 157.811C134.178 157.815 141.034 156.45 147.432 153.795C153.829 151.139 159.643 147.246 164.54 142.336C169.438 137.426 173.324 131.597 175.977 125.18C178.629 118.763 179.997 111.885 180 104.938C180.004 97.9906 178.643 91.1109 175.997 84.6914C173.351 78.2718 169.471 72.4381 164.578 67.5234V67.5234Z" fill="#E8710A"/>
</svg>
