<svg width="180" height="180" viewBox="0 0 180 180" fill="none" xmlns="http://www.w3.org/2000/svg">
<path d="M33.2624 80.5303L15.3937 62.5234C5.53616 72.4363 0 85.8684 0 99.8725C0 113.876 5.53616 127.309 15.3937 137.222L33.3385 119.215C28.2254 114.09 25.3462 107.14 25.3319 99.8882C25.3177 92.6366 28.1696 85.6752 33.2624 80.5303V80.5303Z" fill="#E8710A"/>
<path d="M15.3937 62.5234L33.2624 80.5303C35.7976 77.9833 38.8082 75.9628 42.1222 74.5842C45.4361 73.2056 48.9883 72.496 52.5758 72.496C56.1632 72.496 59.7154 73.2056 63.0294 74.5842C66.3433 75.9628 69.3539 77.9833 71.8891 80.5303L84.8915 58.1742L84.1311 57.5638C73.9892 49.9712 61.4633 46.2941 48.8424 47.2047C36.2216 48.1154 24.3487 53.5528 15.3937 62.5234V62.5234Z" fill="#F9AB00"/>
<path d="M84.9675 141.571L71.8892 119.291C69.354 121.838 66.3433 123.858 63.0294 125.237C59.7154 126.616 56.1632 127.325 52.5758 127.325C48.9883 127.325 45.4361 126.616 42.1222 125.237C38.8082 123.858 35.7976 121.838 33.2624 119.291L15.3937 137.298C24.3309 146.188 36.1438 151.576 48.6957 152.485C61.2476 153.395 73.7094 149.767 83.827 142.257L84.6634 141.571" fill="#F9AB00"/>
<path d="M89.986 62.5234C80.1284 72.4363 74.5923 85.8684 74.5923 99.8724C74.5923 113.876 80.1284 127.309 89.986 137.222L107.931 119.215C102.809 114.075 99.9309 107.103 99.9309 99.8343C99.9309 92.5653 102.809 85.594 107.931 80.454C113.053 75.314 120 72.4264 127.244 72.4264C134.488 72.4264 141.435 75.314 146.558 80.454L164.578 62.5234C159.684 57.6025 153.87 53.6985 147.471 51.0348C141.071 48.3711 134.211 47 127.282 47C120.354 47 113.493 48.3711 107.094 51.0348C100.694 53.6985 94.8804 57.6025 89.986 62.5234V62.5234Z" fill="#F9AB00"/>
<path d="M164.578 62.5234L146.71 80.5303C151.832 85.6703 154.71 92.6416 154.71 99.9106C154.71 107.18 151.832 114.151 146.71 119.291C141.587 124.431 134.64 127.319 127.396 127.319C120.152 127.319 113.205 124.431 108.083 119.291L89.9861 137.298C99.8676 147.224 113.274 152.804 127.255 152.811C134.178 152.815 141.034 151.45 147.432 148.795C153.829 146.139 159.643 142.246 164.54 137.336C169.438 132.426 173.324 126.597 175.977 120.18C178.629 113.763 179.997 106.885 180 99.9376C180.004 92.9906 178.643 86.1109 175.997 79.6914C173.351 73.2718 169.471 67.4381 164.578 62.5234V62.5234Z" fill="#E8710A"/>
</svg>
