<svg width="180" height="180" viewBox="0 0 180 180" fill="none" xmlns="http://www.w3.org/2000/svg">
<path d="M33.2624 90.5303L15.3937 72.5234C5.53616 82.4363 0 95.8684 0 109.872C0 123.876 5.53616 137.309 15.3937 147.222L33.3385 129.215C28.2254 124.09 25.3462 117.14 25.3319 109.888C25.3177 102.637 28.1696 95.6752 33.2624 90.5303V90.5303Z" fill="#E8710A"/>
<path d="M15.3937 72.5234L33.2624 90.5303C35.7976 87.9833 38.8082 85.9628 42.1222 84.5842C45.4361 83.2056 48.9883 82.496 52.5758 82.496C56.1632 82.496 59.7154 83.2056 63.0294 84.5842C66.3433 85.9628 69.3539 87.9833 71.8891 90.5303L84.8915 68.1742L84.1311 67.5638C73.9892 59.9712 61.4633 56.2941 48.8424 57.2047C36.2216 58.1154 24.3487 63.5528 15.3937 72.5234V72.5234Z" fill="#F9AB00"/>
<path d="M84.9675 151.571L71.8892 129.291C69.354 131.838 66.3433 133.858 63.0294 135.237C59.7154 136.616 56.1632 137.325 52.5758 137.325C48.9883 137.325 45.4361 136.616 42.1222 135.237C38.8082 133.858 35.7976 131.838 33.2624 129.291L15.3937 147.298C24.3309 156.188 36.1438 161.576 48.6957 162.485C61.2476 163.395 73.7094 159.767 83.827 152.257L84.6634 151.571" fill="#F9AB00"/>
<path d="M89.986 72.5234C80.1284 82.4363 74.5923 95.8684 74.5923 109.872C74.5923 123.876 80.1284 137.309 89.986 147.222L107.931 129.215C102.809 124.075 99.9309 117.103 99.9309 109.834C99.9309 102.565 102.809 95.594 107.931 90.454C113.053 85.314 120 82.4264 127.244 82.4264C134.488 82.4264 141.435 85.314 146.558 90.454L164.578 72.5234C159.684 67.6025 153.87 63.6985 147.471 61.0348C141.071 58.3711 134.211 57 127.282 57C120.354 57 113.493 58.3711 107.094 61.0348C100.694 63.6985 94.8804 67.6025 89.986 72.5234V72.5234Z" fill="#F9AB00"/>
<path d="M164.578 72.5234L146.71 90.5303C151.832 95.6703 154.71 102.642 154.71 109.911C154.71 117.18 151.832 124.151 146.71 129.291C141.587 134.431 134.64 137.319 127.396 137.319C120.152 137.319 113.205 134.431 108.083 129.291L89.9861 147.298C99.8676 157.224 113.274 162.804 127.255 162.811C134.178 162.815 141.034 161.45 147.432 158.795C153.829 156.139 159.643 152.246 164.54 147.336C169.438 142.426 173.324 136.597 175.977 130.18C178.629 123.763 179.997 116.885 180 109.938C180.004 102.991 178.643 96.1109 175.997 89.6914C173.351 83.2718 169.471 77.4381 164.578 72.5234V72.5234Z" fill="#E8710A"/>
</svg>
