<svg width="348" height="180" viewBox="0 0 348 180" fill="none" xmlns="http://www.w3.org/2000/svg">
<path d="M69.5751 134.912C69.4857 135.266 69.1312 135.444 68.5131 135.444H56.6918C55.9814 135.444 55.3513 135.134 54.833 134.513L35.313 109.681L29.8693 114.86V134.118C29.8693 135.004 29.4254 135.447 28.5407 135.447H19.378C18.4918 135.447 18.0494 135.004 18.0494 134.118V46.3405C18.0494 45.4572 18.4918 45 19.378 45H28.5422C29.4269 45 29.8708 45.4438 29.8708 46.3405V100.388L53.2424 76.7509C53.862 76.1328 54.4815 75.8216 55.1011 75.8216H67.3201C67.8504 75.8216 68.2033 76.045 68.3821 76.4843C68.5608 77.016 68.531 77.4137 68.2331 77.6803L43.5464 101.579L69.3085 133.583C69.6615 133.938 69.7508 134.38 69.5766 134.912M117.452 135.442H108.289C107.315 135.442 106.829 135.001 106.829 134.102V132.24C102.933 135.159 97.9317 136.622 91.8237 136.622C86.2474 136.622 81.4202 134.894 77.3468 131.445C73.3626 127.904 71.3713 123.402 71.3713 117.9C71.3713 109.224 76.7704 103.337 87.5714 100.239C91.8207 98.998 98.2385 97.9376 106.826 97.0514C107.094 93.7777 106.231 90.9896 104.238 88.6855C102.245 86.3814 99.3451 85.233 95.5397 85.233C90.58 85.233 85.5354 87.0203 80.4015 90.5442C79.6047 90.9881 79.0283 90.8987 78.6738 90.2791L73.9077 83.5068C73.4639 82.9751 73.5979 82.357 74.3054 81.6481C81.1224 76.9565 88.2044 74.6092 95.5531 74.6092C101.219 74.6092 106.044 75.9377 110.03 78.5933C115.873 82.4896 118.794 88.7301 118.794 97.315V134.099C118.794 134.985 118.35 135.439 117.453 135.439M106.828 107.704C98.1506 108.59 92.2213 109.741 89.034 111.156C84.6954 113.015 82.7458 115.669 83.1896 119.124C83.4548 121.072 84.4303 122.644 86.1118 123.838C87.7934 125.033 89.7415 125.721 91.9547 125.897C98.1506 126.339 103.125 124.701 106.828 120.982V107.704ZM173.051 158.482C168.225 163.481 161.386 165.985 152.534 165.985C147.399 165.985 142.53 164.701 137.928 162.135C136.952 161.514 135.803 160.695 134.475 159.678C133.148 158.66 131.596 157.399 129.829 155.894C129.208 155.364 129.164 154.7 129.68 153.902L135.935 147.646C136.2 147.378 136.555 147.247 136.997 147.247C137.35 147.247 137.661 147.396 137.926 147.646C142.883 152.603 147.709 155.083 152.4 155.083C163.124 155.083 168.468 149.505 168.468 138.351V131.446C164.307 134.898 158.775 136.625 151.869 136.625C143.281 136.625 136.552 133.396 131.684 126.932C127.435 121.267 125.31 114.123 125.31 105.553C125.31 97.4089 127.346 90.504 131.419 84.8503C136.185 78.0348 142.972 74.6256 151.738 74.6256C158.377 74.6256 163.955 76.3533 168.468 79.8057V77.1501C168.468 76.2654 168.91 75.8216 169.797 75.8216H178.961C179.844 75.8216 180.301 76.2654 180.301 77.1501V136.508C180.301 146.154 177.888 153.48 173.063 158.482M168.48 94.6758C166.267 89.0116 161.131 86.1773 153.077 86.1773C142.719 86.1773 137.542 92.6413 137.542 105.565C137.542 112.735 139.27 117.961 142.721 121.233C145.287 123.802 148.607 125.085 152.68 125.085C161 125.085 166.268 122.252 168.468 116.586L168.48 94.6758ZM235.512 158.496C230.686 163.496 223.847 166 214.995 166C209.857 166 204.989 164.716 200.387 162.15C199.412 161.529 198.262 160.71 196.935 159.692C195.608 158.675 194.057 157.414 192.288 155.909C191.668 155.379 191.624 154.715 192.139 153.917L198.394 147.661C198.66 147.393 199.014 147.262 199.456 147.262C199.809 147.262 200.121 147.411 200.386 147.661C205.342 152.618 210.167 155.098 214.86 155.098C225.583 155.098 230.945 149.52 230.945 138.366V131.461C226.782 134.913 221.264 136.64 214.346 136.64C205.758 136.64 199.029 133.411 194.162 126.947C189.911 121.282 187.787 114.138 187.787 105.568C187.787 97.4237 189.823 90.5189 193.893 84.8652C198.66 78.0497 205.447 74.6405 214.212 74.6405C220.851 74.6405 226.428 76.3682 230.944 79.8206V77.165C230.944 76.2803 231.385 75.8365 232.272 75.8365H241.435C242.318 75.8365 242.775 76.2803 242.775 77.165V136.523C242.775 146.169 240.363 153.495 235.54 158.496M230.959 94.6907C228.744 89.0265 223.608 86.1922 215.554 86.1922C205.195 86.1922 200.016 92.6562 200.016 105.58C200.016 112.75 201.744 117.976 205.195 121.248C207.763 123.817 211.083 125.1 215.155 125.1C223.474 125.1 228.744 122.267 230.942 116.601V94.7071L230.959 94.6907ZM263.092 135.441H253.928C253.043 135.441 252.588 135 252.588 134.1V46.3405C252.588 45.4572 253.03 45 253.928 45H263.092C263.975 45 264.433 45.4424 264.433 46.3405V134.118C264.433 135.003 263.989 135.458 263.092 135.458M329.881 108.5C329.881 109.387 329.434 109.829 328.553 109.829H285.394C285.925 114.168 287.785 117.797 290.972 120.702C294.602 123.802 299.161 125.348 304.651 125.348C309.518 125.348 313.885 123.978 317.796 121.232C318.595 120.7 319.256 120.7 319.789 121.232L326.045 127.606C326.753 128.317 326.753 128.947 326.045 129.465C319.67 134.231 312.277 136.635 303.853 136.635C294.822 136.635 287.296 133.626 281.276 127.606C275.435 121.676 272.513 114.106 272.513 104.899C272.513 96.2233 275.387 88.8761 281.144 82.856C286.456 77.3675 293.361 74.6241 301.846 74.6241C309.901 74.6241 316.673 77.5016 322.165 83.2551C327.829 89.1874 330.441 96.6239 329.999 105.566L329.881 108.5ZM312.485 88.9804C309.476 86.2369 305.845 84.8637 301.612 84.8637C297.628 84.8637 294.13 86.1922 291.123 88.8463C288.116 91.5004 286.208 94.9558 285.412 99.2051H317.415C317.326 95.1346 315.687 91.7238 312.5 88.9804" fill="#20BEFF"/>
</svg>
