<svg width="349" height="180" viewBox="0 0 349 180" fill="none" xmlns="http://www.w3.org/2000/svg">
<path d="M57.4873 133.315C57.3876 133.71 56.9921 133.908 56.3025 133.908H43.1134C42.3207 133.908 41.6178 133.562 41.0396 132.87L19.261 105.165L13.1874 110.943V132.429C13.1874 133.418 12.6922 133.911 11.7052 133.911H1.48225C0.493529 133.911 0 133.418 0 132.429V34.4956C0 33.5102 0.493529 33 1.48225 33H11.7068C12.6939 33 13.1891 33.4952 13.1891 34.4956V94.7961L39.2648 68.4246C39.9561 67.735 40.6474 67.3877 41.3387 67.3877H54.9714C55.563 67.3877 55.9568 67.6369 56.1562 68.1272C56.3556 68.7204 56.3224 69.1641 55.9901 69.4615L28.447 96.1255L57.1898 131.833C57.5837 132.228 57.6834 132.722 57.4889 133.315M110.903 133.906H100.68C99.5937 133.906 99.0519 133.415 99.0519 132.411V130.334C94.7049 133.591 89.1248 135.223 82.3101 135.223C76.0886 135.223 70.703 133.295 66.1582 129.446C61.713 125.496 59.4913 120.473 59.4913 114.335C59.4913 104.655 65.5151 98.0864 77.5659 94.63C82.3068 93.2458 89.4671 92.0626 99.0486 91.0739C99.3477 87.4214 98.3839 84.3107 96.1605 81.74C93.9372 79.1693 90.7018 77.8881 86.4561 77.8881C80.9226 77.8881 75.2943 79.8822 69.5663 83.8138C68.6773 84.309 68.0342 84.2093 67.6387 83.518L62.3212 75.9622C61.826 75.3689 61.9756 74.6793 62.7649 73.8883C70.3706 68.6539 78.2721 66.035 86.471 66.035C92.7922 66.035 98.1762 67.5173 102.623 70.4801C109.142 74.8272 112.401 81.7898 112.401 91.368V132.408C112.401 133.396 111.905 133.903 110.905 133.903M99.0503 102.959C89.3691 103.947 82.7538 105.232 79.1977 106.81C74.3571 108.884 72.1819 111.845 72.6771 115.701C72.9729 117.874 74.0613 119.627 75.9374 120.96C77.8135 122.293 79.987 123.06 82.4563 123.256C89.3691 123.75 94.9192 121.922 99.0503 117.773V102.959ZM172.935 159.612C167.551 165.19 159.921 167.983 150.045 167.983C144.316 167.983 138.883 166.551 133.749 163.688C132.66 162.995 131.377 162.081 129.897 160.946C128.416 159.811 126.685 158.404 124.712 156.725C124.019 156.134 123.971 155.393 124.546 154.502L131.525 147.523C131.821 147.223 132.217 147.077 132.71 147.077C133.104 147.077 133.451 147.243 133.747 147.523C139.277 153.053 144.661 155.82 149.896 155.82C161.86 155.82 167.822 149.596 167.822 137.152V129.448C163.179 133.3 157.008 135.226 149.302 135.226C139.721 135.226 132.213 131.623 126.783 124.411C122.042 118.092 119.671 110.121 119.671 100.559C119.671 91.4727 121.942 83.769 126.487 77.4611C131.804 69.857 139.377 66.0533 149.156 66.0533C156.564 66.0533 162.787 67.9809 167.822 71.8328V68.8699C167.822 67.8829 168.316 67.3877 169.305 67.3877H179.529C180.515 67.3877 181.025 67.8829 181.025 68.8699V135.096C181.025 145.858 178.333 154.032 172.949 159.612M167.836 88.4234C165.366 82.1039 159.637 78.9416 150.65 78.9416C139.094 78.9416 133.318 86.1535 133.318 100.572C133.318 108.572 135.246 114.403 139.096 118.054C141.959 120.92 145.663 122.351 150.208 122.351C159.49 122.351 165.368 119.19 167.822 112.869L167.836 88.4234ZM242.623 159.628C237.239 165.207 229.608 168 219.733 168C214 168 208.569 166.568 203.435 163.704C202.346 163.011 201.063 162.098 199.583 160.963C198.102 159.828 196.372 158.42 194.398 156.742C193.707 156.15 193.657 155.409 194.232 154.518L201.211 147.539C201.507 147.24 201.903 147.094 202.396 147.094C202.79 147.094 203.137 147.26 203.433 147.539C208.963 153.069 214.346 155.836 219.582 155.836C231.546 155.836 237.528 149.613 237.528 137.168V129.465C232.884 133.317 226.727 135.242 219.008 135.242C209.427 135.242 201.919 131.64 196.489 124.428C191.746 118.108 189.377 110.137 189.377 100.576C189.377 91.4893 191.648 83.7856 196.19 77.4777C201.507 69.8736 209.08 66.0699 218.859 66.0699C226.267 66.0699 232.488 67.9975 237.527 71.8494V68.8866C237.527 67.8995 238.018 67.4043 239.009 67.4043H249.232C250.217 67.4043 250.727 67.8995 250.727 68.8866V135.113C250.727 145.874 248.035 154.048 242.655 159.628M237.543 88.44C235.072 82.1205 229.343 78.9583 220.356 78.9583C208.799 78.9583 203.021 86.1701 203.021 100.589C203.021 108.588 204.949 114.419 208.799 118.07C211.664 120.937 215.368 122.367 219.911 122.367C229.193 122.367 235.072 119.207 237.525 112.886V88.4583L237.543 88.44ZM273.395 133.905H263.17C262.183 133.905 261.675 133.413 261.675 132.409V34.4956C261.675 33.5102 262.168 33 263.17 33H273.395C274.38 33 274.89 33.4935 274.89 34.4956V132.429C274.89 133.416 274.395 133.925 273.395 133.925M347.911 103.848C347.911 104.836 347.413 105.33 346.429 105.33H298.278C298.869 110.17 300.945 114.22 304.501 117.46C308.55 120.92 313.637 122.645 319.762 122.645C325.192 122.645 330.065 121.116 334.428 118.052C335.319 117.459 336.057 117.459 336.652 118.052L343.631 125.164C344.422 125.957 344.422 126.66 343.631 127.238C336.519 132.555 328.27 135.237 318.871 135.237C308.796 135.237 300.4 131.881 293.683 125.164C287.166 118.547 283.905 110.102 283.905 99.8295C283.905 90.15 287.112 81.9527 293.535 75.236C299.462 69.1126 307.166 66.0517 316.633 66.0517C325.619 66.0517 333.175 69.2621 339.302 75.6813C345.622 82.3 348.536 90.597 348.043 100.574L347.911 103.848ZM328.503 82.069C325.146 79.0081 321.095 77.476 316.372 77.476C311.927 77.476 308.023 78.9583 304.668 81.9195C301.313 84.8806 299.185 88.7358 298.297 93.4767H334.003C333.903 88.9352 332.075 85.1299 328.519 82.069" fill="#20BEFF"/>
</svg>
